<svg width="48" height="49" viewBox="0 0 48 49" fill="none" xmlns="http://www.w3.org/2000/svg">
<g clip-path="url(#clip0_419_387)">
<path d="M37.101 26.377C37.041 20.299 42.057 17.383 42.282 17.239C39.462 13.114 35.07 12.547 33.504 12.484C29.766 12.106 26.211 14.686 24.312 14.686C22.419 14.686 19.491 12.541 16.392 12.598C12.318 12.658 8.56205 14.968 6.46205 18.616C2.22905 25.96 5.37905 36.844 9.50405 42.799C11.52 45.715 13.923 48.991 17.079 48.874C20.118 48.754 21.267 46.906 24.942 46.906C28.617 46.906 29.649 48.874 32.865 48.811C36.135 48.751 38.208 45.838 40.209 42.913C42.525 39.529 43.476 36.256 43.533 36.088C43.461 36.055 37.155 33.64 37.092 26.38L37.101 26.377ZM31.059 8.53902C32.733 6.50802 33.864 3.68802 33.555 0.874023C31.143 0.973023 28.218 2.48202 26.487 4.51002C24.933 6.31002 23.574 9.18102 23.937 11.938C26.631 12.148 29.382 10.57 31.056 8.54202L31.059 8.53902Z" fill="black"/>
</g>
<defs>
<clipPath id="clip0_419_387">
<rect width="48" height="48" fill="white" transform="translate(0 0.874023)"/>
</clipPath>
</defs>
</svg>
