<svg width="48" height="48" viewBox="0 0 48 48" fill="none" xmlns="http://www.w3.org/2000/svg">
<g clip-path="url(#clip0_419_389)">
<path fill-rule="evenodd" clip-rule="evenodd" d="M46.0005 0H2.001C0.8955 0 0 0.8955 0 1.9995V46.0005C0 47.1045 0.8955 48 2.001 48H25.5V30H19.5V22.5H25.5V16.5C25.5 10.3005 29.4255 7.2495 34.956 7.2495C37.605 7.2495 39.882 7.4475 40.545 7.5345V14.0145L36.7095 14.016C33.702 14.016 33 15.4455 33 17.5425V22.5H40.5L39 30H33L33.12 48H46.0005C47.1045 48 48 47.1045 48 46.0005V1.9995C48 0.8955 47.1045 0 46.0005 0Z" fill="#3B5998"/>
</g>
<defs>
<clipPath id="clip0_419_389">
<rect width="48" height="48" fill="white"/>
</clipPath>
</defs>
</svg>
