<svg width="49" height="49" viewBox="0 0 49 49" fill="none" xmlns="http://www.w3.org/2000/svg">
<g clip-path="url(#clip0_419_382)">
<path d="M11.0029 20.4031C12.868 14.7513 18.1794 10.6922 24.4705 10.6922C27.8523 10.6922 30.9068 11.8922 33.3068 13.8558L40.2886 6.87402C36.0341 3.16493 30.5795 0.874023 24.4705 0.874023C15.0106 0.874023 6.86596 6.27062 2.95044 14.1741L11.0029 20.4031Z" fill="#EA4335"/>
<path d="M32.5518 36.8991C30.3722 38.3065 27.6026 39.0557 24.4704 39.0557C18.2034 39.0557 12.9086 35.0277 11.0244 29.4097L2.94531 35.5439C6.85597 43.4612 15.0004 48.8739 24.4704 48.8739C30.3361 48.8739 35.9411 46.7887 40.1388 42.8731L32.5518 36.8991Z" fill="#34A853"/>
<path d="M40.1388 42.8733C44.5288 38.7783 47.3796 32.6815 47.3796 24.8741C47.3796 23.456 47.1614 21.9287 46.8341 20.5105H24.4705V29.7832H37.3432C36.708 32.9014 35.0031 35.3166 32.5519 36.8993L40.1388 42.8733Z" fill="#4A90E2"/>
<path d="M11.0244 29.4098C10.5471 27.9867 10.2886 26.4615 10.2886 24.874C10.2886 23.3106 10.5393 21.8076 11.0029 20.4031L2.95044 14.1741C1.34363 17.3949 0.470459 21.0248 0.470459 24.874C0.470459 28.7131 1.36002 32.3344 2.94538 35.544L11.0244 29.4098Z" fill="#FBBC05"/>
</g>
<defs>
<clipPath id="clip0_419_382">
<rect width="48" height="48" fill="white" transform="translate(0.470459 0.874023)"/>
</clipPath>
</defs>
</svg>
